# xmcd CD database file
#
# Track frame offsets:
#	150
#	16708
#	30473
#	47048
#
# Disc length: 809 seconds
#
# Revision: 0
# Processed by: cddbd v1.5PL3 Copyright (c) Steve Scherf et al.
# Submitted via: CDex 1.51
#
DISCID=21032704
DTITLE=ManaKana - 二千一夜のミュウ
DYEAR=1997
DGENRE=Pop
TTITLE0=二千一夜のミュウ
TTITLE1=アップ トゥ ミー
TTITLE2=二千一夜のミュウ <オリジナル・カラオケ>
TTITLE3=アップ トゥ ミー <オリジナル・カラオケ>
EXTD=YEAR: 1997
EXTT0=
EXTT1=
EXTT2=
EXTT3=
PLAYORDER=
